<svg version="1.1" xmlns="http://www.w3.org/2000/svg" style="display: block;" viewBox="0 0 2048 2048" width="1000" height="1000" preserveAspectRatio="none">
<defs>
	<linearGradient id="Gradient1" gradientUnits="userSpaceOnUse" x1="912.902" y1="442.045" x2="688.319" y2="905.713">
		<stop class="stop0" offset="0" stop-opacity="1" stop-color="rgb(121,255,210)"/>
		<stop class="stop1" offset="1" stop-opacity="1" stop-color="rgb(101,205,231)"/>
	</linearGradient>
	<linearGradient id="Gradient2" gradientUnits="userSpaceOnUse" x1="686.276" y1="789.497" x2="309.274" y2="1248.5">
		<stop class="stop0" offset="0" stop-opacity="1" stop-color="rgb(60,184,227)"/>
		<stop class="stop1" offset="1" stop-opacity="1" stop-color="rgb(65,141,243)"/>
	</linearGradient>
	<linearGradient id="Gradient3" gradientUnits="userSpaceOnUse" x1="1389.82" y1="917.801" x2="1131.47" y2="448.703">
		<stop class="stop0" offset="0" stop-opacity="1" stop-color="rgb(83,114,219)"/>
		<stop class="stop1" offset="1" stop-opacity="1" stop-color="rgb(86,171,236)"/>
	</linearGradient>
	<linearGradient id="Gradient4" gradientUnits="userSpaceOnUse" x1="1739.1" y1="1249.6" x2="1399.88" y2="802.335">
		<stop class="stop0" offset="0" stop-opacity="1" stop-color="rgb(39,70,191)"/>
		<stop class="stop1" offset="1" stop-opacity="1" stop-color="rgb(47,123,212)"/>
	</linearGradient>
	<linearGradient id="Gradient5" gradientUnits="userSpaceOnUse" x1="1234.35" y1="1801.3" x2="611.977" y2="1069.15">
		<stop class="stop0" offset="0" stop-opacity="1" stop-color="rgb(16,26,158)"/>
		<stop class="stop1" offset="1" stop-opacity="1" stop-color="rgb(83,128,228)"/>
	</linearGradient>
</defs>
<path transform="translate(0,0)" fill="url(#Gradient5)" d="M 1662.89 767.987 C 1682.71 770.771 1701.25 770.944 1721.37 774.362 C 1781.9 784.649 1839.7 817.743 1876.69 867.345 C 1913.53 916.437 1929.06 978.298 1919.76 1038.97 C 1902.41 1154.15 1786.08 1238.98 1672.17 1237.8 C 1652.5 1243.29 1632.37 1247.61 1613.24 1254.94 C 1493.12 1301.01 1388.16 1384.64 1324.87 1497.18 C 1306.89 1529.5 1292.89 1563.89 1283.18 1599.59 C 1278.61 1616.66 1275.75 1633.8 1270.69 1650.48 C 1271.69 1697.52 1263.08 1744.63 1238.33 1785.14 C 1235.73 1789.39 1225.81 1805.41 1221.95 1808.31 C 1212.17 1822.05 1193.43 1841.67 1179.27 1850.86 C 1168.76 1860.52 1149.57 1873.26 1136.2 1879.15 C 1128.62 1883.38 1120.74 1886.52 1112.7 1889.68 C 990.755 1937.52 842.644 1871.75 801.572 1746.18 C 795.99 1729.12 789.969 1705.46 790.965 1687.09 C 789.228 1678.99 789.855 1668.15 789.089 1659.66 C 782.942 1591.47 755.234 1525.49 718.461 1468.2 C 701.682 1441.84 682.472 1417.11 661.085 1394.33 C 598.162 1328.14 496.801 1261.87 407.023 1242.25 C 408.899 1240.48 410.124 1238.57 412.855 1238.18 C 441.715 1234.03 470.286 1231.12 498.98 1225.47 C 536.215 1217.79 573.012 1208.11 609.212 1196.49 C 705.148 1166.67 811.808 1108.61 892.958 1049.88 C 909.766 1037.71 935.11 1019.46 949.279 1005.07 L 949.797 1005.04 C 951.711 1008.92 971.26 1026.68 975.761 1031.01 C 987.578 1042.16 999.187 1053.53 1010.58 1065.11 C 1017.33 1072.09 1033.08 1089.7 1040 1094.57 C 1059.13 1069.22 1103.06 1030.18 1128.31 1009.22 L 1128.45 1008.28 C 1137.33 1002.35 1147.11 994.018 1155.51 987.294 C 1252.34 909.78 1361.94 845.034 1480.25 806.578 C 1500.81 799.897 1521.29 793.127 1542.65 788.472 C 1570.63 782.251 1598.89 777.365 1627.33 773.83 C 1638.5 772.371 1651.88 771.962 1662.26 770.245 L 1662.89 767.987 z"/>
<path transform="translate(0,0)" fill="url(#Gradient4)" d="M 1662.89 767.987 C 1682.71 770.771 1701.25 770.944 1721.37 774.362 C 1781.9 784.649 1839.7 817.743 1876.69 867.345 C 1913.53 916.437 1929.06 978.298 1919.76 1038.97 C 1902.41 1154.15 1786.08 1238.98 1672.17 1237.8 C 1652.57 1234.75 1632.84 1234.01 1613.34 1230.84 C 1448.71 1204.12 1292.28 1131.65 1159.03 1032.27 C 1150.15 1025.65 1137.35 1014.21 1128.31 1009.22 L 1128.45 1008.28 C 1137.33 1002.35 1147.11 994.018 1155.51 987.294 C 1252.34 909.78 1361.94 845.034 1480.25 806.578 C 1500.81 799.897 1521.29 793.127 1542.65 788.472 C 1570.63 782.251 1598.89 777.365 1627.33 773.83 C 1638.5 772.371 1651.88 771.962 1662.26 770.245 L 1662.89 767.987 z"/>
<path transform="translate(0,0)" fill="rgb(71,225,206)" d="M 1128.31 1009.22 C 1137.35 1014.21 1150.15 1025.65 1159.03 1032.27 C 1292.28 1131.65 1448.71 1204.12 1613.34 1230.84 C 1632.84 1234.01 1652.57 1234.75 1672.17 1237.8 C 1652.5 1243.29 1632.37 1247.61 1613.24 1254.94 C 1493.12 1301.01 1388.16 1384.64 1324.87 1497.18 C 1306.89 1529.5 1292.89 1563.89 1283.18 1599.59 C 1278.61 1616.66 1275.75 1633.8 1270.69 1650.48 C 1268.68 1642.37 1266.91 1616.95 1265.71 1606.91 C 1262.52 1579.53 1258.08 1552.32 1252.4 1525.35 C 1220.1 1373.97 1143.89 1210.24 1040 1094.57 C 1059.13 1069.22 1103.06 1030.18 1128.31 1009.22 z"/>
<path transform="translate(0,0)" fill="rgb(22,37,157)" d="M 790.965 1687.09 C 791.976 1688.15 797.022 1718.95 797.432 1723.64 C 799.21 1743.99 832.133 1814.75 849.063 1821.82 C 852.287 1821.54 854.131 1819.99 856.919 1818.26 C 865.562 1818.05 872.902 1833.04 873.51 1840.73 C 874.263 1850.25 883.974 1855.49 890.919 1860.54 C 899.289 1860.61 911.605 1859.82 919.317 1861.81 C 953.622 1870.69 983.564 1886.54 1020.11 1887 C 1037.01 1887.21 1058.02 1883.62 1074.11 1888.1 C 1084 1891.23 1076.12 1891.49 1088.71 1890.96 C 1089.95 1892.88 1089.66 1891.81 1089.47 1894.19 C 1101.87 1894.77 1128.19 1878 1136.2 1879.15 C 1128.62 1883.38 1120.74 1886.52 1112.7 1889.68 C 990.755 1937.52 842.644 1871.75 801.572 1746.18 C 795.99 1729.12 789.969 1705.46 790.965 1687.09 z"/>
<path transform="translate(0,0)" fill="rgb(22,37,157)" d="M 1179.27 1850.86 C 1180.16 1847.83 1217.61 1810.4 1221.95 1808.31 C 1212.17 1822.05 1193.43 1841.67 1179.27 1850.86 z"/>
<path transform="translate(0,0)" fill="rgb(71,225,206)" d="M 789.353 381.08 C 792.3 363.893 791.524 341.646 792.832 323.813 C 796.615 272.197 817.233 223.248 851.52 184.48 C 896.536 133.906 959.897 103.419 1027.51 99.8003 C 1156.2 92.6739 1274.18 197.066 1277.98 326.426 C 1278.35 339.004 1279.42 352.003 1280.07 364.621 L 1280.34 365.715 C 1285.13 386.17 1284.76 398.475 1291.78 421.543 C 1328.76 539.187 1406.36 639.852 1510.72 705.556 C 1562.36 738.011 1604.51 754.212 1662.89 767.987 L 1662.26 770.245 C 1651.88 771.962 1638.5 772.371 1627.33 773.83 C 1598.89 777.365 1570.63 782.251 1542.65 788.472 C 1521.29 793.127 1500.81 799.897 1480.25 806.578 C 1361.94 845.034 1252.34 909.78 1155.51 987.294 C 1147.11 994.018 1137.33 1002.35 1128.45 1008.28 C 1116.99 995.845 1089.89 974.763 1076.43 961.547 C 1067.46 952.734 1045.21 929.978 1037.19 923.403 L 1036.66 923.065 C 1024.24 908.175 1009.79 893.986 997.807 878.608 C 910.514 768.203 847.561 640.583 813.082 504.125 C 806.341 476.416 801.153 448.351 797.542 420.063 C 796.556 412.298 795.028 385.323 791.74 380.407 L 789.353 381.08 z"/>
<path transform="translate(0,0)" fill="url(#Gradient3)" d="M 1280.07 364.621 L 1280.34 365.715 C 1285.13 386.17 1284.76 398.475 1291.78 421.543 C 1328.76 539.187 1406.36 639.852 1510.72 705.556 C 1562.36 738.011 1604.51 754.212 1662.89 767.987 L 1662.26 770.245 C 1651.88 771.962 1638.5 772.371 1627.33 773.83 C 1598.89 777.365 1570.63 782.251 1542.65 788.472 C 1521.29 793.127 1500.81 799.897 1480.25 806.578 C 1361.94 845.034 1252.34 909.78 1155.51 987.294 C 1147.11 994.018 1137.33 1002.35 1128.45 1008.28 C 1116.99 995.845 1089.89 974.763 1076.43 961.547 C 1067.46 952.734 1045.21 929.978 1037.19 923.403 C 1040.35 919.041 1043.64 915.205 1047.19 911.163 C 1063.6 892.48 1079.47 873.247 1094.34 853.298 C 1154.73 772.212 1201.69 681.946 1233.44 585.955 C 1252.71 527.437 1265.83 467.07 1272.59 405.832 C 1273.57 397.43 1275.07 368.967 1280.07 364.621 z"/>
<path transform="translate(0,0)" fill="url(#Gradient2)" d="M 789.353 381.08 L 791.74 380.407 C 795.028 385.323 796.556 412.298 797.542 420.063 C 801.153 448.351 806.341 476.416 813.082 504.125 C 847.561 640.583 910.514 768.203 997.807 878.608 C 1009.79 893.986 1024.24 908.175 1036.66 923.065 C 1029.45 928.132 1022.48 939.216 1015.85 945.102 C 996.858 961.959 969.692 990.918 949.797 1005.04 L 949.279 1005.07 C 935.11 1019.46 909.766 1037.71 892.958 1049.88 C 811.808 1108.61 705.148 1166.67 609.212 1196.49 C 573.012 1208.11 536.215 1217.79 498.98 1225.47 C 470.286 1231.12 441.715 1234.03 412.855 1238.18 C 410.124 1238.57 408.899 1240.48 407.023 1242.25 C 399.659 1240.04 365.849 1237.08 356.165 1236.07 C 308.886 1231.42 263.964 1213.18 226.819 1183.56 C 177.266 1144.89 145.326 1087.93 138.174 1025.49 C 121.883 889.073 241.959 775.459 372.507 769.739 C 382.687 769.293 394.31 767.606 404.572 766.383 C 449.943 759.039 496.071 742.342 536.248 720.245 C 665.435 649.194 764.508 527.798 789.353 381.08 z"/>
<path transform="translate(0,0)" fill="url(#Gradient1)" d="M 789.353 381.08 L 791.74 380.407 C 795.028 385.323 796.556 412.298 797.542 420.063 C 801.153 448.351 806.341 476.416 813.082 504.125 C 847.561 640.583 910.514 768.203 997.807 878.608 C 1009.79 893.986 1024.24 908.175 1036.66 923.065 C 1029.45 928.132 1022.48 939.216 1015.85 945.102 C 996.858 961.959 969.692 990.918 949.797 1005.04 L 949.279 1005.07 C 942.8 1000.17 932.446 990.383 925.874 984.742 C 911.031 971.893 895.737 959.575 880.021 947.81 C 748.603 850.055 588.449 784.442 424.487 771.584 C 419.289 771.176 407.797 771.571 403.776 768.574 L 404.572 766.383 C 449.943 759.039 496.071 742.342 536.248 720.245 C 665.435 649.194 764.508 527.798 789.353 381.08 z"/>
</svg>